<svg xmlns="http://www.w3.org/2000/svg" fill="none" viewBox="0 0 142 42"><path fill="#fff" d="m15.73 27.24 3.77-3.88 4.29 3.88h7.34l-11.68-11.24-11.58 11.24h7.86Z"/><path fill="#fff" d="m26.52 9.2-5.56 5.56 3.67 3.7 1.89-1.86 10.31 10.09a16.54 16.54 0 0 1-15.5 10.55c-9.13 0-16.53-7.26-16.53-16.24a16.45 16.45 0 0 1 16.58-16.23c8.1 0 14.89 5.78 16.25 13.32l5 5.18a20.67 20.67 0 0 0-6.12-17.11 21.43 21.43 0 0 0-15.13-6.16 21.35 21.35 0 0 0-15.11 6.15 20.59 20.59 0 0 0-6.27 14.85 20.6 20.6 0 0 0 6.26 14.85 21.43 21.43 0 0 0 15.12 6.15c5.7 0 11.07-2.17 15.12-6.15a20.47 20.47 0 0 0 5.28-8.56c.19-.55.33-1.16.47-1.71l-4.33-4.49-11.4-11.88Zm33.9 4.3h3.14l-1.72 8.46h5.3l-.5 2.45h-8.45l2.22-10.91Zm9.69 0h3.14l-2.22 10.91h-3.15l2.23-10.92Zm8.03 2.38-.5 2.4h4.91l-.49 2.39h-4.89l-.76 3.74h-3.15l2.23-10.92h8.7l-.5 2.4h-5.55Zm10.14 0-.36 1.84h4.93l-.46 2.3h-4.95l-.4 2h5.83l-.5 2.4h-8.92l2.23-10.93h8.7l-.5 2.4h-5.6Zm9.92.06h-3.41l.5-2.44h9.97l-.51 2.44h-3.4l-1.73 8.47h-3.15l1.74-8.47Zm11.85 8.69c-1.12 0-2.1-.2-2.94-.6a4.59 4.59 0 0 1-1.92-1.7 4.69 4.69 0 0 1-.66-2.5c0-1.25.29-2.37.87-3.37a6.22 6.22 0 0 1 2.46-2.34 7.58 7.58 0 0 1 3.6-.84c1.13 0 2.1.2 2.93.6a4.48 4.48 0 0 1 2.6 4.2 6.5 6.5 0 0 1-.89 3.37 6.1 6.1 0 0 1-2.46 2.34 7.5 7.5 0 0 1-3.59.84Zm.27-2.56a3.31 3.31 0 0 0 3.07-1.89 4.3 4.3 0 0 0 .43-1.91 2.3 2.3 0 0 0-.7-1.77 2.63 2.63 0 0 0-1.92-.67c-.7 0-1.32.18-1.85.52a3.42 3.42 0 0 0-1.22 1.39 4.2 4.2 0 0 0-.43 1.9c0 .74.23 1.33.68 1.78.47.43 1.12.65 1.94.65Zm12.58 2.56c-.97 0-1.8-.15-2.5-.47a3.62 3.62 0 0 1-1.6-1.37 3.86 3.86 0 0 1-.56-2.09c0-.33.05-.72.13-1.15l1.24-6.06h3.14l-1.22 6a4.36 4.36 0 0 0-.1.87c0 1.14.62 1.71 1.85 1.71.66 0 1.19-.2 1.57-.59.4-.4.68-1.07.87-1.98l1.23-6h3.1l-1.26 6.19c-.68 3.3-2.64 4.94-5.9 4.94Zm18.52-7.66c0 1-.27 1.86-.81 2.6a4.62 4.62 0 0 1-2.28 1.57l1.9 3.27h-3.3l-1.64-2.9h-1.6l-.58 2.9h-3.14l2.22-10.92h4.75c1.42 0 2.52.31 3.3.92a3.06 3.06 0 0 1 1.18 2.56Zm-3.18.3c0-.45-.15-.78-.46-1a2.1 2.1 0 0 0-1.29-.34h-1.65l-.67 3.2h1.88c.7 0 1.24-.17 1.62-.49.38-.32.57-.78.57-1.37Zm-77.96 17.44a2.19 2.19 0 0 1-1.04-.25 1.9 1.9 0 0 1-.73-.7 1.9 1.9 0 0 1-.26-.98c0-.37.09-.7.26-1 .18-.29.42-.52.73-.68.31-.17.66-.26 1.04-.26s.73.09 1.03.25a1.87 1.87 0 0 1 1 1.69 1.87 1.87 0 0 1-1 1.68c-.3.16-.65.25-1.03.25Zm0-.36c.3 0 .58-.07.83-.2a1.51 1.51 0 0 0 .79-1.37c0-.3-.07-.57-.21-.8a1.46 1.46 0 0 0-.58-.57 1.67 1.67 0 0 0-.83-.2c-.3 0-.58.06-.83.2a1.5 1.5 0 0 0-.59.56c-.14.24-.2.5-.2.8 0 .3.06.57.2.81a1.56 1.56 0 0 0 1.42.77Zm4.4-2.55c.28 0 .53.06.75.18.22.12.4.3.52.51a1.5 1.5 0 0 1 .18.76c0 .28-.06.54-.18.76a1.33 1.33 0 0 1-.52.51 1.5 1.5 0 0 1-.74.18c-.24 0-.45-.05-.64-.14a1.23 1.23 0 0 1-.47-.42v1.59h-.39v-3.91h.38v.56c.11-.18.27-.33.46-.43.2-.1.41-.15.66-.15Zm-.02 2.56c.2 0 .39-.05.55-.14a.99.99 0 0 0 .39-.4c.1-.16.14-.36.14-.57 0-.22-.04-.41-.14-.58a.98.98 0 0 0-.39-.4 1.1 1.1 0 0 0-.55-.14c-.2 0-.4.05-.56.14-.16.1-.29.23-.39.4a1.17 1.17 0 0 0-.13.58c0 .21.04.4.13.58.1.17.23.3.4.4.16.08.34.13.55.13Zm4.37-2.2h-1.66v2.51h-.4v-2.85h2.06v.34Zm1.57-.36c.38 0 .67.1.87.28.2.18.3.46.3.82v1.77h-.37v-.44a.89.89 0 0 1-.4.35c-.16.08-.36.12-.6.12a1.2 1.2 0 0 1-.77-.23.73.73 0 0 1-.29-.6c0-.24.09-.44.27-.59.18-.14.46-.22.85-.22h.92v-.17c0-.25-.07-.43-.2-.56a.9.9 0 0 0-.62-.2 1.53 1.53 0 0 0-.97.34l-.17-.29a1.54 1.54 0 0 1 .53-.28 2.05 2.05 0 0 1 .65-.1Zm-.14 2.6c.22 0 .41-.05.57-.15a.91.91 0 0 0 .35-.43v-.47h-.9c-.5 0-.75.17-.75.51a.47.47 0 0 0 .19.4c.13.09.31.14.54.14Zm2.36-2.58h.4v1.26h1.82v-1.26h.4v2.85h-.4v-1.26h-1.83v1.26h-.39v-2.85Zm3.73 0h.39v2.27l1.94-2.27h.35v2.85h-.4v-2.26l-1.93 2.26h-.35v-2.85Zm5.16 1.37a.92.92 0 0 1 .47.24.58.58 0 0 1 .17.42.64.64 0 0 1-.17.45 1.1 1.1 0 0 1-.48.3 2 2 0 0 1-.65.1c-.21 0-.42-.02-.62-.08a1.65 1.65 0 0 1-.53-.27l.13-.28a1.82 1.82 0 0 0 1 .3c.27 0 .49-.04.66-.14.17-.1.26-.24.26-.4a.39.39 0 0 0-.21-.36 1.1 1.1 0 0 0-.58-.13h-.5v-.28h.48c.22 0 .4-.04.53-.12.13-.08.2-.2.2-.33 0-.15-.08-.27-.23-.36a1.13 1.13 0 0 0-.58-.13c-.31 0-.62.08-.93.23l-.1-.3a2.34 2.34 0 0 1 1.07-.26c.22 0 .42.03.6.1.18.06.32.15.42.26.1.12.15.25.15.4a.55.55 0 0 1-.16.39.89.89 0 0 1-.4.25Zm2.53-1.4c.38 0 .67.1.88.3.2.17.3.45.3.81v1.77h-.38v-.44a.89.89 0 0 1-.39.35 1.4 1.4 0 0 1-.6.12 1.2 1.2 0 0 1-.78-.23.73.73 0 0 1-.29-.6c0-.24.1-.44.27-.59.18-.14.46-.22.85-.22h.93v-.17c0-.25-.07-.43-.21-.56-.14-.13-.35-.2-.62-.2a1.53 1.53 0 0 0-.96.34l-.18-.29a1.54 1.54 0 0 1 .53-.28 2.05 2.05 0 0 1 .65-.1Zm-.14 2.6c.23 0 .41-.04.57-.14a.91.91 0 0 0 .36-.43v-.47h-.92c-.5 0-.74.17-.74.51a.47.47 0 0 0 .2.4c.12.09.3.14.53.14Zm5.39-.05v1.05h-.37v-.72h-2.66v-2.85h.4v2.52h1.77v-2.52h.39v2.52h.47Zm.75-2.52h.4v2.27l1.93-2.27h.35v2.85h-.4v-2.26l-1.93 2.26h-.35v-2.85Zm6.03 0v2.85h-.36v-.94h-1.02l-.67.94h-.43l.73-1a.98.98 0 0 1-.52-.3.86.86 0 0 1-.18-.57c0-.32.1-.56.33-.73.22-.17.52-.25.9-.25h1.22Zm-2.06.99c0 .42.28.63.83.63h.87v-1.28h-.85c-.56 0-.85.22-.85.65Zm7.23-.99v2.85h-.39v-2.5h-1.82v2.5h-.4v-2.85h2.62Zm2.32 2.88a1.6 1.6 0 0 1-.76-.18 1.4 1.4 0 0 1-.53-.52 1.46 1.46 0 0 1-.2-.75 1.45 1.45 0 0 1 .73-1.27c.23-.12.48-.18.76-.18s.53.06.76.18a1.45 1.45 0 0 1 .72 1.27c0 .27-.07.52-.2.75-.12.22-.3.39-.52.52a1.55 1.55 0 0 1-.76.18Zm0-.34c.2 0 .39-.05.55-.14a.98.98 0 0 0 .39-.4 1.2 1.2 0 0 0 .14-.57 1.2 1.2 0 0 0-.14-.58.95.95 0 0 0-.39-.4 1.08 1.08 0 0 0-.55-.13c-.2 0-.4.04-.56.14a1 1 0 0 0-.39.39 1.2 1.2 0 0 0-.13.58c0 .21.04.4.13.58.1.17.23.3.4.4.16.08.34.13.55.13Zm4.03.31-.93-1.19-.92 1.2h-.44l1.14-1.47-1.09-1.39h.44l.88 1.12.87-1.12h.43l-1.1 1.39 1.16 1.46h-.44Zm2.18.03c-.28 0-.53-.06-.75-.18a1.4 1.4 0 0 1-.53-.52 1.47 1.47 0 0 1-.2-.75 1.45 1.45 0 0 1 .73-1.27c.22-.12.47-.18.75-.18s.54.06.76.18a1.4 1.4 0 0 1 .72 1.27c0 .27-.07.52-.2.75-.12.22-.3.39-.52.52a1.55 1.55 0 0 1-.76.18Zm0-.34c.21 0 .4-.05.56-.14a.98.98 0 0 0 .38-.4 1.2 1.2 0 0 0 .14-.57 1.2 1.2 0 0 0-.14-.58.95.95 0 0 0-.38-.4 1.08 1.08 0 0 0-.56-.13c-.2 0-.39.04-.55.14a1 1 0 0 0-.4.39 1.2 1.2 0 0 0-.13.58c0 .21.05.4.14.58.1.17.22.3.39.4.16.08.35.13.55.13Zm5.13-.02v1.02h-.37v-.69h-2.6v.7h-.37v-1.03h.17c.2-.01.33-.16.4-.43s.11-.65.14-1.13l.04-.96h2.14v2.52h.45Zm-2.27-1.54c-.02.4-.05.74-.1 1-.06.26-.15.44-.28.54h1.8v-2.18h-1.39l-.03.64Zm4.24 1.9c-.28 0-.54-.06-.76-.18a1.4 1.4 0 0 1-.53-.52 1.46 1.46 0 0 1-.2-.75 1.45 1.45 0 0 1 .73-1.27c.22-.12.48-.18.76-.18s.53.06.75.18a1.45 1.45 0 0 1 .73 1.27c0 .27-.07.52-.2.75-.13.22-.3.39-.53.52a1.55 1.55 0 0 1-.75.18Zm0-.34c.2 0 .39-.05.55-.14a.98.98 0 0 0 .39-.4c.09-.16.13-.36.13-.57 0-.22-.04-.41-.13-.58a.95.95 0 0 0-.39-.4 1.08 1.08 0 0 0-.55-.13c-.2 0-.4.04-.56.14a1 1 0 0 0-.39.39 1.2 1.2 0 0 0-.14.58c0 .21.05.4.14.58.1.17.23.3.39.4.16.08.35.13.56.13Zm4.16-1.16c.4.09.6.32.6.7 0 .25-.1.44-.29.57-.19.14-.47.2-.84.2h-1.32v-2.85h1.28c.33 0 .6.06.78.19a.61.61 0 0 1 .28.54c0 .16-.04.3-.13.4a.76.76 0 0 1-.36.25Zm-1.47-.11h.87c.23 0 .4-.04.52-.13a.41.41 0 0 0 .18-.36.4.4 0 0 0-.18-.36.91.91 0 0 0-.51-.12h-.88v.97Zm.92 1.28c.25 0 .44-.04.57-.12.12-.08.19-.2.19-.37s-.06-.3-.18-.38c-.11-.08-.29-.12-.54-.12h-.96v.99h.92Zm5.36-1.17c.4.09.59.32.59.7 0 .25-.1.44-.28.57-.2.14-.47.2-.84.2h-1.32v-2.85h1.28c.33 0 .59.06.78.19a.62.62 0 0 1 .28.54.63.63 0 0 1-.13.4.77.77 0 0 1-.36.25Zm-1.47-.11h.87c.23 0 .4-.04.52-.13a.41.41 0 0 0 .18-.36.4.4 0 0 0-.19-.36.92.92 0 0 0-.5-.12h-.88v.97Zm.92 1.28c.25 0 .44-.04.56-.12.13-.08.2-.2.2-.37s-.06-.3-.18-.38c-.11-.08-.3-.12-.54-.12h-.96v.99h.92Zm5.56-2.2h-1.66v2.5h-.4v-2.85h2.06v.34Zm1.63 2.53a1.6 1.6 0 0 1-.76-.18 1.4 1.4 0 0 1-.53-.52 1.46 1.46 0 0 1-.2-.75 1.45 1.45 0 0 1 .73-1.27c.23-.12.48-.18.76-.18s.53.06.76.18a1.45 1.45 0 0 1 .72 1.26c0 .28-.07.53-.2.76-.12.22-.3.39-.52.52a1.55 1.55 0 0 1-.76.18Zm0-.34c.2 0 .39-.05.55-.14a.99.99 0 0 0 .39-.4 1.2 1.2 0 0 0 .14-.57 1.2 1.2 0 0 0-.14-.58.95.95 0 0 0-.39-.4 1.08 1.08 0 0 0-.55-.13c-.2 0-.4.04-.56.14a.99.99 0 0 0-.38.39 1.2 1.2 0 0 0-.14.58c0 .21.04.4.14.58.09.17.22.3.38.4.17.08.35.13.56.13Zm3.81-2.56c.27 0 .52.06.74.18.22.12.4.3.52.51a1.59 1.59 0 0 1-.01 1.52c-.12.22-.29.39-.51.51a1.5 1.5 0 0 1-.74.18c-.24 0-.45-.05-.64-.14a1.22 1.22 0 0 1-.46-.42v1.59h-.4v-3.91h.38v.56a1.21 1.21 0 0 1 .46-.43c.2-.1.42-.15.66-.15Zm-.03 2.56c.2 0 .39-.05.55-.14a.98.98 0 0 0 .4-.4 1.16 1.16 0 0 0 .14-.57 1.13 1.13 0 0 0-.15-.58.98.98 0 0 0-.39-.4 1.1 1.1 0 0 0-.55-.14c-.2 0-.39.05-.56.14a1.04 1.04 0 0 0-.38.4 1.17 1.17 0 0 0-.14.58c0 .21.05.4.14.58.1.17.22.3.38.4.17.08.36.13.56.13Zm3.54-1.53c.36 0 .64.08.83.24.2.15.3.38.3.67 0 .3-.11.54-.32.7-.2.16-.5.24-.88.24h-1.15v-2.86h.4v1h.82Zm1.6-1.01h.4v2.85h-.4v-2.85Zm-1.7 2.57c.28 0 .48-.05.61-.16.14-.11.21-.28.21-.49 0-.2-.06-.37-.2-.47-.14-.1-.34-.15-.61-.15l-.74-.01v1.27h.74Z"/></svg>